# xmcd
#
# Track frame offsets:
#	150
#	10425
#	22167
#	35139
#	42939
#	55614
#	68236
#	80460
#	96959
#	105429
#
# Disc length: 1554 seconds
#
# Revision: 0
# Processed by: cddbd v1.5.2PL0 Copyright (c) Steve Scherf et al.
# Submitted via: dBpowerAMP V4.0
#
DISCID=7f06100a
DTITLE=Patti Mayo - 1980
DYEAR=1980
DGENRE=Country
TTITLE0=The One At Home
TTITLE1=Sure Feels Like Rain
TTITLE2=A New Love Song
TTITLE3=Music, Music, Music
TTITLE4=Love Me Or Leave Me
TTITLE5=The Wall
TTITLE6=Superstar Cowboy
TTITLE7=This Aint Tennessee
TTITLE8=Absolutely Certain
TTITLE9=Sexy Movies
EXTD=
EXTT0=
EXTT1=
EXTT2=
EXTT3=
EXTT4=
EXTT5=
EXTT6=
EXTT7=
EXTT8=
EXTT9=
PLAYORDER=
